<svg xmlns="http://www.w3.org/2000/svg" width="27.304" height="84.5" viewBox="0 0 27.304 84.5">
  <g id="noun_445237_cc" transform="translate(-36.3 -7.7)">
    <g id="Grupo_1070" data-name="Grupo 1070">
      <path id="Trazado_2220" data-name="Trazado 2220" d="M59,35.3,55.7,13.6a.864.864,0,0,0,.6-.3.778.778,0,0,0,.2-.8l-.4-3.1a1.934,1.934,0,0,0-1.9-1.7H45.9A1.863,1.863,0,0,0,44,9.4l-.4,3.1a1.884,1.884,0,0,0,.2.8,1.08,1.08,0,0,0,.7.3L41,35.3a13.431,13.431,0,0,0-4.7,10.4V87.9a4.268,4.268,0,0,0,4.3,4.3H59.3a4.268,4.268,0,0,0,4.3-4.3V45.7A13.493,13.493,0,0,0,59,35.3ZM45.9,9.8h8.2l.2,1.9H45.6ZM61.7,87.9a2.263,2.263,0,0,1-2.3,2.3H40.6a2.263,2.263,0,0,1-2.3-2.3V45.7a11.712,11.712,0,0,1,7.4-10.9,1.04,1.04,0,0,0,.6-1.3,1.15,1.15,0,0,0-1.4-.5,7.973,7.973,0,0,0-1.6.8l3.2-20.1h7.1l3.1,20.1a5.171,5.171,0,0,0-1.3-.6.985.985,0,1,0-.8,1.8,11.78,11.78,0,0,1,7.1,10.7Z" fill="#fff"/>
      <path id="Trazado_2221" data-name="Trazado 2221" d="M42.1,42.3a1.012,1.012,0,0,0-1.2.8,3.083,3.083,0,0,0-.1,1,1.088,1.088,0,0,0,.9,1.1h.1a.987.987,0,0,0,1-.9,1.7,1.7,0,0,1,.1-.7A1.089,1.089,0,0,0,42.1,42.3Z" fill="#fff"/>
      <path id="Trazado_2222" data-name="Trazado 2222" d="M45.5,37.3a8.289,8.289,0,0,0-2.8,2.3.972.972,0,0,0,.1,1.4.844.844,0,0,0,.7.2,1.135,1.135,0,0,0,.8-.3,7.7,7.7,0,0,1,2.2-1.8.922.922,0,0,0,.4-1.3A1.15,1.15,0,0,0,45.5,37.3Z" fill="#fff"/>
    </g>
  </g>
</svg>
