<svg xmlns="http://www.w3.org/2000/svg" width="39.567" height="63.677" viewBox="0 0 39.567 63.677">
  <g id="noun_13499_cc" transform="translate(-17.666 -1)">
    <path id="Trazado_2214" data-name="Trazado 2214" d="M55.242,11.256c.058-2.27.076-5.224.083-6.783a.663.663,0,0,0-.011-.109c-.082-1.338-1.748-2.092-5.869-2.668a91.339,91.339,0,0,0-12-.7,91.457,91.457,0,0,0-12,.695c-4.23.591-5.878,1.368-5.878,2.773v0c.006,1.559.025,4.513.082,6.783a5.647,5.647,0,0,1-.863,3.092,7.83,7.83,0,0,0-1.124,4.338,9.553,9.553,0,0,0,1.51,4.623,6.383,6.383,0,0,1,1.077,3.044c.04,1.43.583,8.157,1.158,15.28.441,5.459.922,11.422,1.19,15.191,0,.009,0,.018,0,.027,0,.055.012.107.016.161.11,1.566.182,2.733.2,3.288a1.1,1.1,0,0,0,.088.408c.731,3.856,13.122,3.971,14.574,3.971,1.5,0,14.611-.122,14.611-4.333,0-.016-.005-.032-.005-.048.044-1.889.765-10.8,1.4-18.665.575-7.122,1.118-13.849,1.159-15.279a6.368,6.368,0,0,1,1.076-3.044,9.54,9.54,0,0,0,1.509-4.623A7.823,7.823,0,0,0,56.1,14.347,5.672,5.672,0,0,1,55.242,11.256Zm-17.793-8c7.467,0,12.344.641,14.533,1.207-2.189.565-7.065,1.207-14.533,1.207S25.106,5.033,22.917,4.468C25.106,3.9,29.982,3.26,37.45,3.26Zm.03,59.157c-7.3,0-11.793-1.369-12.352-2.163a1.131,1.131,0,0,0-.059-.268c-.006-.154-.014-.333-.025-.534,3.912,1.665,11.27,1.731,12.376,1.731s8.547-.068,12.441-1.761c-.019.34-.031.619-.036.824,0,.005,0,.01,0,.016C49.243,61.057,44.753,62.417,37.48,62.417Zm16.266-40.21a8.473,8.473,0,0,0-1.363,4.082c-.039,1.371-.58,8.069-1.152,15.161-.449,5.567-.91,11.259-1.175,14.985a1.109,1.109,0,0,0-.08.318c-.576.8-5.148,2.168-12.556,2.168-7.38,0-11.944-1.36-12.548-2.159-.262-3.716-.737-9.581-1.2-15.314-.573-7.092-1.113-13.79-1.153-15.161a8.475,8.475,0,0,0-1.363-4.082,7.464,7.464,0,0,1-1.225-3.6,5.691,5.691,0,0,1,.869-3.21,7.783,7.783,0,0,0,1.119-4.2c-.037-1.464-.058-3.216-.069-4.691a23.2,23.2,0,0,0,3.6.733,91.457,91.457,0,0,0,12,.695,91.464,91.464,0,0,0,12-.695,23.2,23.2,0,0,0,3.607-.733c-.012,1.474-.033,3.228-.07,4.692a7.782,7.782,0,0,0,1.12,4.195,5.686,5.686,0,0,1,.869,3.21A7.473,7.473,0,0,1,53.746,22.207Z" fill="#fff"/>
  </g>
</svg>
