<svg xmlns="http://www.w3.org/2000/svg" width="38.447" height="63.769" viewBox="0 0 38.447 63.769">
  <g id="noun_582409_cc" transform="translate(274.621 -40.87)">
    <path id="Trazado_2223" data-name="Trazado 2223" d="M59.379,39.719c3.231-7.617,1.963-11.733-.567-19.931v-.057C56.516,12.3,56.686,8.585,56.75,7.359V6.977h-.1a.779.779,0,0,0,.057-.326c0-.709-.461-1.034-4.669-1.346-2.671-.2-6.207-.3-9.948-.3s-7.3.106-9.962.312c-4.209.312-4.669.666-4.669,1.346a.779.779,0,0,0,.057.326h-.057v.383c.057,1.219.234,4.96-2.062,12.371v.057c-2.558,8.191-3.854,12.3-.6,19.924A18.032,18.032,0,0,0,37.131,49.985a6.972,6.972,0,0,1,1.155,6.03,6.157,6.157,0,0,1-2.558,3.543c-3.656.383-6.483,1.07-7.957,1.941l-.638.461-.071.057a2.834,2.834,0,0,0-.057,3.918l.177.191h0c1.92,1.587,7.822,2.643,14.908,2.643s12.988-1.056,14.879-2.65h0l.177-.191a2.834,2.834,0,0,0-.057-3.954l-.205-.177c-1.275-1.02-4.35-1.849-8.46-2.281a6.157,6.157,0,0,1-2.558-3.543,6.972,6.972,0,0,1,1.183-5.987A18.032,18.032,0,0,0,59.379,39.719ZM42.09,6.212c5.158,0,9.1.205,11.393.439-2.317.241-6.256.475-11.393.475s-9.1-.205-11.393-.439A107.314,107.314,0,0,1,42.09,6.212ZM25.922,39.244c-3.054-7.213-1.906-10.933.581-19.1v-.057C28.7,12.971,28.685,9.117,28.628,7.6a26.592,26.592,0,0,0,3.429.411c2.664.2,6.2.312,9.962.312S49.367,8.2,52.01,8a25.975,25.975,0,0,0,3.472-.418C55.418,9.1,55.4,12.95,57.607,20.092v.057c2.515,8.162,3.67,11.882.609,19.131-2.969,7.007-10.125,10.139-15.893,10.139h-.546C36.047,49.383,28.9,46.244,25.922,39.244Zm18.8,17.083a7.858,7.858,0,0,0,5.527,5.357l.22-.709c2.756.425,4.8,1.042,5.668,1.729l.142.12a1.623,1.623,0,0,1,.043,2.218h0c-1.162,1.2-6.54,2.466-14.213,2.466S29.067,66.239,27.9,65.042h0a1.623,1.623,0,0,1,0-2.2l.524-.383a16.764,16.764,0,0,1,5.286-1.481l.22.709a7.858,7.858,0,0,0,5.534-5.371,8.361,8.361,0,0,0-.666-5.966,18.366,18.366,0,0,0,3.025.255h.546a18.365,18.365,0,0,0,3.018-.255,8.361,8.361,0,0,0-.659,5.98Z" transform="translate(-297.484 35.87)" fill="#fff"/>
  </g>
</svg>
